<svg xmlns="http://www.w3.org/2000/svg" xmlns:xlink="http://www.w3.org/1999/xlink" version="1.0" width="3998.2012"
  height="1023.308pt" viewBox="0 0 2998.6509 1023.308">
  <defs>
    <linearGradient id="a" x1="0" x2="1" y1="1" y2="0" gradientUnits="objectBoundingBox" spreadMethod="pad">
      <stop stop-color="#ee1586" offset="0%" />
      <stop stop-color="#98167c" offset=".48983783" />
      <stop stop-color="#291a71" offset=".9995153" />
    </linearGradient>
    <linearGradient id="b" x1="2497.593" x2="9667.9883" y1="8618.1182" y2="1447.7231" gradientUnits="userSpaceOnUse"
      spreadMethod="pad" gradientTransform="scale(.8417 1.18807)">
      <stop stop-color="#ee1586" offset="0%" />
      <stop stop-color="#98167c" offset="50%" />
      <stop stop-color="#291a71" offset="80%" />
      <stop stop-color="#5b89a2" offset="100%" />
    </linearGradient>
    <linearGradient id="c" x1="3439.6357" x2="5789.4619" y1="2356.03" y2="6.2036815"
      gradientTransform="scale(1.05705 .94603)" gradientUnits="userSpaceOnUse">
      <stop stop-color="#1e1a70" offset="30%" />
      <stop stop-color="#5b89a2" offset="100%" />
    </linearGradient>
    <linearGradient xlink:href="#a" id="d" gradientUnits="userSpaceOnUse" x1="1015.7604" y1="279.78375" x2="3212.9604"
      y2="828.60608" gradientTransform="translate(-210.22227 -51.105202)" />
  </defs>
  <path fill="url(#b)"
    d="M4735 10225c-419-54-823-194-1181-411-341-206-678-518-905-840-300-423-492-940-540-1452-13-137-6-596 10-692 46-267 71-372 133-555 51-152 82-226 169-400 86-174 120-221 195-265 56-33 62-35 154-35 86 0 99 3 143 28 62 37 71 47 301 347 108 140 241 314 296 385 117 153 461 601 558 729 37 48 87 114 112 146s70 90 100 130c130 171 171 217 226 259 137 101 267 145 429 144 92 0 124-5 195-28 233-75 380-228 466-485 27-79 29-96 29-235-1-158-16-239-75-385-68-172-214-420-352-600-49-63-133-173-188-245-132-172-540-703-924-1205-170-223-331-432-357-466-82-106-94-136-94-239v-90l104-180c57-99 112-195 122-213 34-58 289-498 390-672 24-41 53-91 64-111s124-215 250-434c249-430 252-435 334-435 39 0 49 5 85 43 23 24 71 88 109 142 77 114 152 223 287 415 52 74 164 236 250 360s269 387 406 585c138 198 280 401 315 452 133 191 237 340 318 457 47 67 121 174 165 238 45 65 169 244 276 398s225 324 263 378c37 53 92 133 123 177 30 44 73 105 95 135 277 388 466 882 529 1385 18 140 23 409 11 573-61 835-479 1621-1136 2137-82 64-281 199-370 250-347 199-784 341-1187 385-132 14-579 11-703-5z"
    style="fill:url(#b);fill-opacity:1" transform="matrix(.1 0 0 -.1 -210.22228 1023.8949)" />
  <path fill="url(#c)"
    d="M4105 2210c-49-23-100-70-185-172-125-147-214-327-261-525-20-84-24-123-23-273 0-192 14-272 76-432 111-291 344-545 618-675 113-53 133-61 230-86 229-61 472-54 700 20 154 49 336 156 461 271 184 169 326 420 369 652 6 36 16 87 21 113 25 130-6 396-63 552-59 160-145 308-242 413-50 54-84 72-135 72-71 0-89-17-238-226-23-33-105-149-184-259-184-260-194-272-243-298-53-28-165-30-214-4-65 35-74 48-318 486-17 31-41 73-52 94-26 45-47 81-95 168-43 77-72 106-118 119-46 14-58 12-104-10z"
    style="fill:url(#c)" transform="matrix(.1 0 0 -.1 -210.22228 1023.8949)" /><text xml:space="preserve"
    style="font-style:normal;font-variant:normal;font-weight:700;font-stretch:normal;font-size:750px;line-height:1.25;font-family:Poppins;-inkscape-font-specification:'Poppins Bold';mix-blend-mode:normal;fill:url(#d);fill-opacity:1;stroke-width:.75"
    x="750.15271" y="762.0199">
    <tspan
      x="750.15271"
      y="762.0199"
      style="font-style:normal;font-variant:normal;font-weight:700;font-stretch:normal;font-size:750px;font-family:-apple-system, BlinkMacSystemFont, 'Segoe UI', 'Roboto', 'Oxygen', 'Ubuntu', 'Cantarell', 'Fira Sans', 'Droid Sans', 'Helvetica Neue', sans-serif;fill:url(#d);fill-opacity:1;stroke-width:.75"
    >NeerY</tspan>
  </text>
</svg>