<?xml version="1.0" encoding="UTF-8" standalone="no"?>
<svg
        version="1.1"
        width="386.349pt"
        height="386.30499pt"
        viewBox="0 0 386.34899 386.30497"
        id="svg18"
        sodipodi:docname="43826-1608038201-Wolt_logo_RGB-86ecff.svg"
        inkscape:version="1.2 (dc2aeda, 2022-05-15)"
        xmlns:inkscape="http://www.inkscape.org/namespaces/inkscape"
        xmlns:sodipodi="http://sodipodi.sourceforge.net/DTD/sodipodi-0.dtd"
        xmlns="http://www.w3.org/2000/svg"
        xmlns:svg="http://www.w3.org/2000/svg">
    <defs
            id="defs22" />
    <sodipodi:namedview
            id="namedview20"
            pagecolor="#ffffff"
            bordercolor="#111111"
            borderopacity="1"
            inkscape:showpageshadow="0"
            inkscape:pageopacity="0"
            inkscape:pagecheckerboard="1"
            inkscape:deskcolor="#d1d1d1"
            inkscape:document-units="pt"
            showgrid="false"
            inkscape:zoom="0.33743979"
            inkscape:cx="260.78727"
            inkscape:cy="259.30552"
            inkscape:window-width="1440"
            inkscape:window-height="847"
            inkscape:window-x="0"
            inkscape:window-y="25"
            inkscape:window-maximized="0"
            inkscape:current-layer="svg18" />
    <g
            enable-background="new"
            id="g16"
            transform="translate(-69.0961,-69.1165)">
        <g
                id="Layer-1"
                data-name="Layer 1">
            <clipPath
                    id="cp0">
                <path
                        transform="matrix(1,0,0,-1,0,524.538)"
                        d="M 0,524.538 H 524.541 V 0 H 0 Z"
                        id="path2" />
            </clipPath>
            <g
                    clip-path="url(#cp0)"
                    id="g13">
                <path
                        transform="matrix(1,0,0,-1,262.2701,455.4215)"
                        d="m 0,0 c 106.688,0 193.175,86.478 193.175,193.152 0,106.676 -86.487,193.153 -193.175,193.153 -106.687,0 -193.174,-86.477 -193.174,-193.153 C -193.174,86.478 -106.687,0 0,0"
                        fill="#ffffff"
                        id="path5" />
                <path
                        transform="matrix(1,0,0,-1,262.2701,437.3228)"
                        d="m 0,0 c 96.68,0 175.054,78.374 175.054,175.054 0,96.679 -78.374,175.053 -175.054,175.053 -96.679,0 -175.054,-78.374 -175.054,-175.053 C -175.054,78.374 -96.679,0 0,0"
                        fill="#00c2e8"
                        id="path7" />
                <path
                        transform="matrix(1,0,0,-1,233.0303,217.02213)"
                        d="m 0,0 c -2.839,0.026 -5.36,-0.094 -6.61,-0.214 -2.489,-0.234 -3.349,-2.587 -3.19,-4.913 2.329,-33.674 -5.419,-72.775 -13.85,-72.702 -6.273,0.06 -7.868,18.374 -7.722,34.656 0.08,9.625 0.708,18.89 1.012,27.077 0.107,3.041 -0.992,3.623 -3.182,3.904 -3.322,0.434 -5.704,0.455 -9.013,-0.247 -2.528,-0.541 -3.143,-2.607 -5.85,-8.89 -13.492,-31.315 -26.462,-56.453 -26.462,-56.453 -3.15,25.339 1.39,49.849 5.228,67.729 0.529,2.467 -0.635,3.93 -2.66,3.916 -3.819,-0.032 -9.675,-0.106 -12.335,-1.81 -2.494,-1.605 -3.428,-3.329 -4.176,-6.905 -4.267,-20.487 -7.152,-46.2 -3.209,-66.138 0.854,-4.312 1.84,-5.334 3.646,-6.478 1.807,-1.142 9.595,-2.219 12.619,-2.245 3.435,-0.034 6.585,0.862 9.238,5.326 5.618,9.446 10.138,18.883 18.674,37.077 0.655,-23.801 3.851,-42.51 20.566,-42.657 C -5.115,-90.161 9.668,-34.924 9.893,-8.288 9.959,-1.243 6.472,-0.061 0,0"
                        fill="#ffffff"
                        id="path9" />
                <path
                        transform="matrix(1,0,0,-1,384.1265,247.69492)"
                        d="m 0,0 c 0,0 -7.484,0.461 -16.1,0.915 0,0 1.827,9.552 2.713,13.448 0.438,1.906 -0.555,3.811 -2.964,4.419 -2.388,0.602 -7.894,0.688 -9.747,0.494 -1.542,-0.16 -3.05,-1.069 -3.408,-2.667 -0.906,-3.99 -1.852,-8.796 -2.984,-14.952 -3.197,0.107 -6.306,0.16 -8.463,0.141 -2.012,-0.021 -2.972,-1.036 -3.395,-2.694 -0.43,-1.651 -0.788,-4.01 -0.947,-6.457 -0.118,-1.851 1.899,-2.753 3.984,-2.694 0,0 2.554,0.094 6.564,0.254 -0.774,-3.502 -2.335,-12.887 -2.951,-18.728 -3.719,-12.119 -11.302,-21.021 -17.767,-20.961 -3.957,0.033 -6.3,2.406 -6.24,9.531 0.086,9.872 2.462,22.332 5.876,34.81 4.758,11.183 7.55,23.635 7.597,29.29 0.019,2.125 -0.61,4.511 -3.15,5.039 -4.593,0.957 -8.967,0.823 -12.037,-0.099 -2.746,-0.829 -3.328,-3.703 -3.673,-5.235 -1.647,-7.365 -4.346,-20.418 -6.26,-31.869 -4.062,-4.839 -8.721,-8.22 -13.73,-9.016 -0.648,15.186 -9.423,21.783 -21.592,21.89 -21.367,0.194 -35.151,-18.728 -35.336,-40.097 -0.152,-17.312 9.231,-24.612 22.982,-24.739 16.232,-0.14 28.414,11.277 33.106,32.365 4.606,0.895 8.609,3.094 12.076,6.163 0,0 -2.7,-13.068 -2.766,-20.754 -0.106,-11.651 4.843,-18.188 16.583,-18.288 9.661,-0.086 18.15,6.651 23.491,14.886 1.323,-10.829 6.934,-15.16 16.112,-15.241 8.431,-0.073 16.597,5.201 22.419,14.826 1.165,1.918 2.012,3.603 1.298,4.445 -1.654,1.931 -4.824,2.954 -5.711,1.37 -3.851,-6.898 -7.94,-9.658 -12.374,-9.618 -3.508,0.026 -6.326,2.138 -6.273,8.221 0.073,8.756 5.208,32.377 5.208,32.377 4.334,0.121 9.151,0.228 13.73,0.287 4.017,0.061 6.868,1.258 7.597,5.068 C 3.897,-1.604 2.581,-0.141 0,0 m -118.521,-50.585 c -4.916,0.04 -8.165,4.312 -8.092,12.72 0.139,16.128 6.028,33.427 16.338,33.333 1.158,-0.007 2.183,-0.174 3.09,-0.541 -0.166,-0.622 -0.297,-1.137 -0.351,-1.424 -1.621,-9.138 0.212,-14.98 4.553,-18.241 -2.356,-14.143 -8.721,-25.907 -15.538,-25.847"
                        fill="#ffffff"
                        id="path11" />
            </g>
        </g>
    </g>
</svg>
